<svg xmlns="http://www.w3.org/2000/svg" viewBox="0 0 920 416.428">
	<g id="huginn" fill="#9e9e9e">
		<path d="m 420.522,282.852 -32.899,0 7.623,-62.188 -52.759,0 -7.623,62.188 -32.899,0 18.054,-146.142 32.899,0 -7.623,61.686 52.759,0 7.623,-61.686 32.899,0 -18.054,146.142"/>
		<path d="m 485.077,178.837 -7.823,65.999 c -0.334,2.808 -0.468,5.182 -0.401,7.121 0.133,1.939 0.501,3.510 1.103,4.714 0.601,1.136 1.404,1.972 2.407,2.507 1.069,0.468 2.373,0.702 3.911,0.702 2.072,2e-5 4.246,-0.601 6.519,-1.805 2.340,-1.270 4.580,-3.009 6.720,-5.215 2.139,-2.273 4.112,-5.015 5.918,-8.224 1.872,-3.209 3.410,-6.787 4.614,-10.732 l 6.720,-55.066 31.094,0 -12.638,104.015 -15.847,0 c -7.355,0 -11.033,-3.410 -11.033,-10.230 l 0,-6.620 c -5.015,6.285 -10.398,10.933 -16.148,13.942 -5.750,3.009 -11.735,4.513 -17.954,4.513 -4.346,-1e-5 -8.291,-0.869 -11.835,-2.607 -3.544,-1.738 -6.519,-4.279 -8.927,-7.623 -2.340,-3.410 -4.012,-7.556 -5.015,-12.437 -1.003,-4.948 -1.103,-10.598 -0.300,-16.951 l 7.823,-65.999 31.094,0"/>
		<path d="m 641.407,209.931 c -9e-5,4.279 -0.601,7.924 -1.805,10.933 -1.136,3.009 -2.407,5.851 -3.811,8.525 -1.404,2.674 -2.708,5.416 -3.911,8.224 -1.136,2.808 -1.705,6.118 -1.705,9.930 -8e-5,2.741 0.434,5.282 1.303,7.623 0.936,2.273 1.939,4.614 3.009,7.021 1.069,2.407 2.039,4.948 2.908,7.623 0.936,2.674 1.404,5.750 1.404,9.227 -0.067,5.349 -1.270,10.398 -3.610,15.145 -2.340,4.814 -5.717,8.993 -10.130,12.537 -4.413,3.610 -9.829,6.452 -16.249,8.525 -6.419,2.139 -13.741,3.209 -21.966,3.209 -6.753,-4e-5 -12.805,-0.702 -18.155,-2.106 -5.349,-1.404 -9.896,-3.310 -13.641,-5.717 -3.677,-2.407 -6.519,-5.282 -8.525,-8.626 -2.006,-3.276 -3.009,-6.820 -3.009,-10.632 10e-6,-5.015 1.103,-9.294 3.310,-12.838 2.206,-3.610 5.115,-6.620 8.726,-9.027 3.610,-2.407 7.723,-4.246 12.337,-5.516 4.613,-1.337 9.294,-2.240 14.042,-2.708 4.814,-0.468 9.495,-0.568 14.042,-0.300 4.547,0.200 8.592,0.635 12.136,1.303 -0.133,-0.802 -0.200,-1.604 -0.200,-2.407 -6e-5,-0.869 -6e-5,-1.772 0,-2.708 -6e-5,-3.544 0.902,-7.589 2.708,-12.136 -2.607,1.738 -5.617,3.109 -9.027,4.112 -3.343,1.003 -7.522,1.504 -12.537,1.504 -3.945,3e-5 -7.723,-0.635 -11.334,-1.905 -3.610,-1.337 -6.820,-3.343 -9.629,-6.018 -2.741,-2.674 -4.948,-6.018 -6.620,-10.030 -1.671,-4.078 -2.507,-8.893 -2.507,-14.443 -10e-6,-5.148 0.969,-10.164 2.908,-15.045 2.006,-4.948 4.948,-9.328 8.826,-13.139 3.945,-3.878 8.793,-6.987 14.544,-9.328 5.817,-2.340 12.571,-3.510 20.261,-3.510 3.945,1.1e-4 7.723,0.468 11.334,1.404 3.677,0.869 7.054,2.206 10.130,4.012 l 29.890,0 -1.404,9.729 c -0.601,3.811 -2.541,6.386 -5.817,7.723 l -8.826,3.009 c 0.401,2.206 0.601,4.480 0.601,6.820 m -43.331,22.668 c 2.474,5e-5 4.613,-0.635 6.419,-1.905 1.872,-1.270 3.410,-2.908 4.613,-4.914 1.203,-2.072 2.106,-4.379 2.708,-6.920 0.668,-2.540 1.036,-5.115 1.103,-7.723 -7e-5,-4.346 -0.902,-7.723 -2.708,-10.130 -1.805,-2.407 -4.580,-3.610 -8.325,-3.610 -2.474,8e-5 -4.647,0.601 -6.519,1.805 -1.805,1.136 -3.310,2.674 -4.513,4.613 -1.203,1.939 -2.106,4.179 -2.708,6.720 -0.601,2.541 -0.902,5.182 -0.902,7.924 -4e-5,4.413 0.902,7.890 2.708,10.431 1.805,2.474 4.513,3.711 8.124,3.711 m 12.437,48.847 c -6e-5,-0.401 -6e-5,-0.802 0,-1.203 -6e-5,-0.401 -0.033,-0.768 -0.100,-1.103 -6.820,-1.136 -12.638,-1.671 -17.452,-1.604 -4.747,0.066 -8.592,0.568 -11.534,1.504 -2.942,0.869 -5.082,2.072 -6.419,3.610 -1.337,1.471 -2.006,3.109 -2.006,4.914 -2e-5,3.410 1.237,5.984 3.711,7.723 2.540,1.738 6.787,2.607 12.738,2.607 3.075,-10e-6 5.917,-0.401 8.525,-1.203 2.607,-0.802 4.814,-1.939 6.620,-3.410 1.872,-1.404 3.309,-3.109 4.313,-5.115 1.069,-2.006 1.604,-4.246 1.604,-6.720"/>
		<path d="m 701.094,178.837 -12.437,104.015 -30.692,0 12.437,-104.015 30.692,0 m 5.817,-28.486 c -6e-5,2.474 -0.535,4.814 -1.604,7.021 -1.069,2.139 -2.474,4.045 -4.212,5.717 -1.738,1.604 -3.744,2.908 -6.018,3.911 -2.206,0.936 -4.480,1.404 -6.820,1.404 -2.340,1.1e-4 -4.580,-0.467 -6.720,-1.404 -2.139,-1.002 -4.045,-2.306 -5.717,-3.911 -1.604,-1.671 -2.908,-3.577 -3.911,-5.717 -1.003,-2.206 -1.504,-4.546 -1.504,-7.021 -2e-5,-2.474 0.501,-4.814 1.504,-7.021 1.003,-2.206 2.340,-4.145 4.012,-5.817 1.738,-1.671 3.677,-2.975 5.817,-3.911 2.139,-1.002 4.379,-1.504 6.720,-1.504 2.407,1.5e-4 4.714,0.468 6.920,1.404 2.206,0.936 4.145,2.240 5.817,3.911 1.738,1.671 3.109,3.611 4.112,5.817 1.069,2.206 1.604,4.580 1.604,7.121"/>
		<path d="m 770.056,282.852 7.823,-66.100 c 0.334,-2.808 0.434,-5.182 0.300,-7.121 -0.067,-1.939 -0.401,-3.477 -1.003,-4.613 -0.601,-1.136 -1.437,-1.939 -2.507,-2.407 -1.069,-0.534 -2.340,-0.802 -3.811,-0.802 -2.273,8e-5 -4.647,0.702 -7.121,2.106 -2.474,1.404 -4.848,3.376 -7.121,5.917 -2.206,2.541 -4.246,5.650 -6.118,9.328 -1.872,3.611 -3.343,7.623 -4.413,12.036 l -5.717,51.656 -31.094,0 12.437,-104.015 16.048,0 c 3.209,1e-4 5.717,0.769 7.522,2.306 1.805,1.471 2.708,3.911 2.708,7.322 l 0,8.325 c 5.015,-6.686 10.498,-11.601 16.449,-14.744 5.951,-3.209 12.103,-4.814 18.455,-4.814 4.279,1.1e-4 8.191,0.869 11.735,2.607 3.610,1.738 6.586,4.279 8.927,7.623 2.407,3.343 4.112,7.489 5.115,12.437 1.002,4.881 1.103,10.498 0.300,16.851 l -7.823,66.100 -31.094,0"/>
		<path d="m 880.547,282.852 7.823,-66.100 c 0.334,-2.808 0.434,-5.182 0.300,-7.121 -0.067,-1.939 -0.401,-3.477 -1.003,-4.613 -0.601,-1.136 -1.437,-1.939 -2.507,-2.407 -1.069,-0.534 -2.340,-0.802 -3.811,-0.802 -2.273,8e-5 -4.647,0.702 -7.121,2.106 -2.474,1.404 -4.848,3.376 -7.121,5.917 -2.206,2.541 -4.246,5.650 -6.118,9.328 -1.872,3.611 -3.343,7.623 -4.413,12.036 l -5.717,51.656 -31.094,0 12.437,-104.015 16.048,0 c 3.209,1e-4 5.717,0.769 7.522,2.306 1.805,1.471 2.708,3.911 2.708,7.322 l 0,8.325 c 5.015,-6.686 10.498,-11.601 16.449,-14.744 5.951,-3.209 12.103,-4.814 18.455,-4.814 4.279,1.1e-4 8.191,0.869 11.735,2.607 3.610,1.738 6.586,4.279 8.927,7.623 2.407,3.343 4.112,7.489 5.115,12.437 1.002,4.881 1.103,10.498 0.300,16.851 l -7.823,66.100 -31.094,0"/>
	</g>
	<g id="tagline" fill="#424242">
		<path d="m 295.834,355.074 -1.943,15.632 -5.448,0 1.943,-15.578 -10.349,-23.709 4.818,0 c 0.474,4e-5 0.848,0.118 1.122,0.355 0.273,0.219 0.474,0.529 0.602,0.930 l 6.269,15.331 c 0.182,0.547 0.346,1.076 0.492,1.587 0.145,0.511 0.264,1.013 0.355,1.505 0.237,-0.492 0.492,-0.985 0.766,-1.478 0.273,-0.511 0.574,-1.049 0.903,-1.615 l 10.102,-15.331 c 0.200,-0.328 0.456,-0.620 0.766,-0.876 0.328,-0.273 0.73,-0.410 1.204,-0.410 l 4.517,0 -16.125,23.654"/>
		<path d="m 316.221,367.038 c 1.314,1e-5 2.500,-0.355 3.559,-1.067 1.058,-0.711 1.962,-1.660 2.710,-2.847 0.748,-1.204 1.323,-2.582 1.724,-4.134 0.401,-1.569 0.602,-3.203 0.602,-4.900 0,-2.518 -0.483,-4.398 -1.451,-5.639 -0.967,-1.259 -2.372,-1.889 -4.216,-1.889 -1.314,3e-5 -2.500,0.355 -3.559,1.067 -1.058,0.693 -1.962,1.642 -2.710,2.847 -0.748,1.186 -1.323,2.564 -1.724,4.134 -0.401,1.551 -0.602,3.184 -0.602,4.900 0,2.500 0.474,4.380 1.423,5.639 0.967,1.259 2.381,1.889 4.243,1.889 m -0.465,4.051 c -1.514,-10e-6 -2.911,-0.255 -4.188,-0.766 -1.277,-0.529 -2.381,-1.286 -3.312,-2.272 -0.912,-0.985 -1.624,-2.190 -2.135,-3.613 -0.511,-1.441 -0.766,-3.075 -0.766,-4.900 0,-1.569 0.164,-3.075 0.492,-4.517 0.346,-1.460 0.821,-2.819 1.423,-4.079 0.620,-1.259 1.359,-2.409 2.217,-3.449 0.857,-1.040 1.816,-1.925 2.874,-2.655 1.058,-0.748 2.199,-1.323 3.422,-1.724 1.222,-0.401 2.500,-0.602 3.832,-0.602 1.514,3e-5 2.911,0.264 4.188,0.793 1.277,0.511 2.372,1.259 3.285,2.244 0.930,0.985 1.651,2.190 2.162,3.613 0.511,1.423 0.766,3.048 0.766,4.873 0,2.336 -0.374,4.544 -1.122,6.625 -0.730,2.062 -1.733,3.869 -3.011,5.420 -1.277,1.551 -2.792,2.774 -4.544,3.668 -1.733,0.894 -3.595,1.341 -5.585,1.341"/>
		<path d="m 342.013,342.918 -2.080,17.658 c -0.255,2.117 -0.136,3.686 0.355,4.709 0.511,1.003 1.460,1.505 2.847,1.505 0.821,0 1.660,-0.219 2.518,-0.657 0.857,-0.438 1.688,-1.067 2.491,-1.889 0.803,-0.821 1.551,-1.806 2.244,-2.956 0.711,-1.168 1.314,-2.464 1.807,-3.887 l 1.752,-14.482 5.174,0 -3.340,27.788 -2.573,0 c -1.259,0 -1.889,-0.620 -1.889,-1.861 l 0.356,-4.736 c -1.442,2.318 -3.075,4.061 -4.900,5.229 -1.807,1.168 -3.668,1.752 -5.585,1.752 -1.168,-10e-6 -2.199,-0.228 -3.093,-0.684 -0.894,-0.474 -1.624,-1.159 -2.190,-2.053 -0.565,-0.894 -0.958,-1.989 -1.177,-3.285 -0.200,-1.314 -0.191,-2.810 0.027,-4.489 l 2.080,-17.658 5.174,0"/>
		<path d="m 362.861,370.707 3.340,-27.843 2.600,0 c 1.168,3e-5 1.752,0.593 1.752,1.779 l -0.410,5.886 c 0.73,-1.533 1.514,-2.856 2.354,-3.969 0.839,-1.131 1.715,-2.016 2.628,-2.655 0.930,-0.638 1.88,-1.022 2.847,-1.149 0.985,-0.127 1.980,0.018 2.984,0.438 l -0.930,4.982 c -2.372,-0.949 -4.453,-0.611 -6.242,1.012 -1.788,1.624 -3.239,4.581 -4.353,8.870 l -1.505,12.648 -5.065,0"/>
		<path d="m 414.366,370.707 -2.683,0 c -0.693,0 -1.159,-0.173 -1.396,-0.520 -0.237,-0.346 -0.356,-0.766 -0.356,-1.259 l 0.438,-5.229 c -0.638,1.131 -1.332,2.153 -2.080,3.066 -0.748,0.894 -1.542,1.670 -2.381,2.327 -0.839,0.638 -1.715,1.131 -2.628,1.478 -0.912,0.346 -1.861,0.520 -2.847,0.520 -1.095,-10e-6 -2.089,-0.209 -2.984,-0.629 -0.894,-0.438 -1.67,-1.067 -2.327,-1.889 -0.638,-0.839 -1.140,-1.870 -1.505,-3.093 -0.346,-1.222 -0.520,-2.628 -0.520,-4.216 0,-1.642 0.200,-3.239 0.602,-4.791 0.419,-1.569 1.012,-3.048 1.779,-4.435 0.766,-1.387 1.679,-2.664 2.737,-3.832 1.076,-1.168 2.263,-2.171 3.559,-3.011 1.314,-0.839 2.728,-1.487 4.243,-1.943 1.514,-0.474 3.102,-0.711 4.763,-0.711 1.204,3e-5 2.381,0.091 3.531,0.273 1.149,0.182 2.272,0.511 3.367,0.985 l -3.312,26.912 m -11.964,-3.915 c 0.876,0 1.724,-0.273 2.546,-0.821 0.839,-0.565 1.633,-1.332 2.381,-2.299 0.748,-0.985 1.441,-2.144 2.080,-3.476 0.638,-1.350 1.204,-2.819 1.697,-4.407 l 1.177,-9.308 c -0.748,-0.109 -1.478,-0.164 -2.190,-0.164 -1.624,2e-5 -3.157,0.383 -4.599,1.149 -1.423,0.766 -2.674,1.797 -3.750,3.093 -1.058,1.277 -1.898,2.765 -2.518,4.462 -0.620,1.679 -0.930,3.449 -0.930,5.311 0,2.153 0.346,3.769 1.040,4.845 0.693,1.076 1.715,1.615 3.066,1.615"/>
		<path d="m 442.605,350.666 c 0,0.912 -0.109,1.724 -0.328,2.436 -0.200,0.711 -0.456,1.378 -0.766,1.998 -0.292,0.602 -0.620,1.177 -0.985,1.724 -0.346,0.529 -0.675,1.067 -0.985,1.615 -0.292,0.529 -0.538,1.086 -0.739,1.670 -0.200,0.565 -0.301,1.186 -0.301,1.861 0,0.511 0.082,0.985 0.246,1.423 0.182,0.438 0.401,0.876 0.657,1.314 0.255,0.419 0.529,0.848 0.821,1.286 0.310,0.438 0.593,0.903 0.848,1.396 0.255,0.492 0.465,1.022 0.629,1.587 0.182,0.565 0.273,1.195 0.273,1.889 -0.018,1.295 -0.328,2.537 -0.930,3.723 -0.602,1.186 -1.469,2.226 -2.600,3.121 -1.113,0.894 -2.473,1.606 -4.079,2.135 -1.606,0.529 -3.413,0.793 -5.420,0.793 -1.624,0 -3.093,-0.173 -4.407,-0.520 -1.314,-0.328 -2.436,-0.793 -3.367,-1.396 -0.930,-0.602 -1.642,-1.332 -2.135,-2.190 -0.511,-0.839 -0.766,-1.779 -0.766,-2.819 0,-1.186 0.255,-2.226 0.766,-3.121 0.492,-0.912 1.159,-1.688 1.998,-2.327 0.857,-0.657 1.852,-1.186 2.984,-1.587 1.131,-0.419 2.318,-0.720 3.559,-0.903 1.259,-0.200 2.546,-0.292 3.860,-0.273 1.314,10e-6 2.582,0.091 3.805,0.273 -0.146,-0.328 -0.273,-0.666 -0.383,-1.012 -0.091,-0.365 -0.127,-0.757 -0.109,-1.177 0,-0.565 0.082,-1.149 0.246,-1.752 0.164,-0.602 0.438,-1.268 0.821,-1.998 -0.693,0.474 -1.469,0.839 -2.327,1.095 -0.857,0.255 -1.852,0.383 -2.984,0.383 -1.058,10e-6 -2.053,-0.173 -2.984,-0.520 -0.930,-0.346 -1.743,-0.857 -2.436,-1.533 -0.693,-0.693 -1.241,-1.551 -1.642,-2.573 -0.401,-1.022 -0.602,-2.208 -0.602,-3.559 0,-1.332 0.237,-2.637 0.711,-3.915 0.492,-1.277 1.204,-2.409 2.135,-3.394 0.949,-1.003 2.117,-1.806 3.504,-2.409 1.405,-0.602 3.011,-0.903 4.818,-0.903 0.985,3e-5 1.916,0.118 2.792,0.355 0.894,0.219 1.706,0.565 2.436,1.040 l 7.611,0 -0.218,1.724 c -0.091,0.711 -0.465,1.177 -1.122,1.396 l -3.367,0.657 c 0.310,0.894 0.465,1.889 0.465,2.984 m -10.677,7.419 c 0.949,10e-6 1.788,-0.209 2.518,-0.629 0.748,-0.419 1.368,-0.967 1.861,-1.642 0.511,-0.693 0.894,-1.469 1.149,-2.327 0.273,-0.876 0.410,-1.752 0.410,-2.628 0,-1.551 -0.392,-2.728 -1.177,-3.531 -0.766,-0.821 -1.852,-1.231 -3.257,-1.232 -0.949,3e-5 -1.788,0.200 -2.518,0.602 -0.730,0.383 -1.350,0.903 -1.861,1.560 -0.492,0.657 -0.866,1.414 -1.122,2.272 -0.255,0.839 -0.383,1.715 -0.383,2.628 0,1.587 0.383,2.810 1.149,3.668 0.784,0.839 1.861,1.259 3.230,1.259 m 5.311,13.196 c -10e-5,-0.438 -0.037,-0.839 -0.109,-1.204 -0.073,-0.383 -0.173,-0.748 -0.301,-1.095 -2.372,-0.383 -4.417,-0.529 -6.132,-0.438 -1.715,0.091 -3.130,0.346 -4.243,0.766 -1.113,0.419 -1.934,0.958 -2.464,1.615 -0.529,0.675 -0.794,1.396 -0.794,2.162 0,1.259 0.529,2.226 1.587,2.902 1.076,0.675 2.610,1.012 4.599,1.012 1.168,0 2.235,-0.155 3.203,-0.465 0.967,-0.292 1.788,-0.702 2.464,-1.232 0.693,-0.511 1.231,-1.113 1.615,-1.806 0.383,-0.693 0.574,-1.432 0.575,-2.217"/>
		<path d="m 470.044,348.968 c 0,1.204 -0.246,2.318 -0.739,3.340 -0.492,1.022 -1.396,1.943 -2.710,2.765 -1.314,0.803 -3.121,1.505 -5.420,2.108 -2.281,0.584 -5.211,1.058 -8.788,1.423 -0.018,0.182 -0.027,0.365 -0.027,0.547 0,0.164 0,0.328 0,0.492 0,2.409 0.520,4.243 1.560,5.502 1.058,1.241 2.646,1.861 4.763,1.861 1.295,0 2.381,-0.182 3.258,-0.547 0.876,-0.365 1.615,-0.766 2.217,-1.204 0.620,-0.456 1.159,-0.866 1.615,-1.232 0.456,-0.365 0.912,-0.547 1.368,-0.547 0.365,0 0.684,0.164 0.958,0.492 l 1.314,1.587 c -0.949,0.967 -1.870,1.797 -2.765,2.491 -0.894,0.693 -1.816,1.268 -2.765,1.724 -0.930,0.456 -1.907,0.784 -2.929,0.985 -1.003,0.219 -2.099,0.328 -3.285,0.328 -1.588,-10e-6 -3.020,-0.264 -4.298,-0.793 -1.277,-0.529 -2.363,-1.286 -3.258,-2.272 -0.894,-0.985 -1.587,-2.171 -2.080,-3.559 -0.474,-1.405 -0.711,-2.965 -0.711,-4.681 0,-1.441 0.146,-2.865 0.438,-4.270 0.310,-1.423 0.757,-2.774 1.341,-4.051 0.584,-1.277 1.295,-2.454 2.135,-3.531 0.839,-1.095 1.797,-2.044 2.874,-2.847 1.076,-0.803 2.263,-1.423 3.559,-1.861 1.295,-0.456 2.682,-0.684 4.161,-0.684 1.405,3e-5 2.619,0.200 3.641,0.602 1.040,0.401 1.898,0.921 2.573,1.560 0.675,0.620 1.177,1.314 1.505,2.080 0.328,0.748 0.492,1.478 0.492,2.190 m -8.514,-2.710 c -1.113,3e-5 -2.135,0.228 -3.066,0.684 -0.930,0.456 -1.761,1.086 -2.491,1.889 -0.730,0.803 -1.359,1.752 -1.889,2.847 -0.529,1.076 -0.94,2.245 -1.232,3.504 2.719,-0.346 4.900,-0.730 6.543,-1.149 1.660,-0.438 2.929,-0.912 3.805,-1.423 0.894,-0.511 1.478,-1.049 1.752,-1.615 0.292,-0.584 0.438,-1.195 0.438,-1.834 0,-0.328 -0.073,-0.657 -0.219,-0.985 -0.127,-0.346 -0.346,-0.657 -0.657,-0.930 -0.310,-0.292 -0.712,-0.529 -1.204,-0.711 -0.474,-0.182 -1.067,-0.273 -1.779,-0.273"/>
		<path d="m 473.656,370.707 3.340,-27.843 2.573,0 c 1.168,3e-5 1.752,0.593 1.752,1.779 l -0.356,5.064 c 1.460,-2.390 3.112,-4.188 4.955,-5.393 1.843,-1.204 3.732,-1.806 5.667,-1.806 1.168,3e-5 2.199,0.237 3.093,0.711 0.912,0.456 1.651,1.131 2.217,2.025 0.565,0.876 0.949,1.971 1.149,3.285 0.200,1.295 0.200,2.783 0,4.462 l -2.080,17.713 -5.174,0 2.080,-17.713 c 0.255,-2.098 0.127,-3.650 -0.383,-4.654 -0.511,-1.003 -1.451,-1.505 -2.82,-1.505 -0.857,3e-5 -1.733,0.237 -2.628,0.711 -0.876,0.456 -1.724,1.122 -2.546,1.998 -0.821,0.857 -1.588,1.898 -2.299,3.121 -0.693,1.222 -1.286,2.582 -1.779,4.079 l -1.587,13.962 -5.174,0"/>
		<path d="m 504.642,365.395 c 0,-0.109 0,-0.246 0,-0.410 0,-0.182 0.01,-0.438 0.027,-0.766 0.037,-0.346 0.082,-0.784 0.136,-1.314 0.073,-0.547 0.164,-1.250 0.273,-2.108 l 1.67,-13.634 -3.011,0 c -0.273,2e-5 -0.492,-0.091 -0.657,-0.273 -0.164,-0.200 -0.219,-0.483 -0.164,-0.848 l 0.219,-2.080 4.270,-0.602 2.108,-8.405 c 0.091,-0.292 0.237,-0.520 0.438,-0.684 0.200,-0.182 0.456,-0.273 0.766,-0.273 l 2.737,0 -1.177,9.390 7.200,0 -0.438,3.778 -7.227,0 -1.642,13.387 c -0.091,0.748 -0.164,1.350 -0.219,1.806 -0.055,0.456 -0.100,0.821 -0.136,1.095 -0.018,0.255 -0.036,0.438 -0.055,0.547 0,0.109 0,0.191 0,0.246 0,0.876 0.21,1.542 0.629,1.998 0.438,0.438 1.012,0.657 1.724,0.657 0.456,1e-5 0.857,-0.063 1.204,-0.191 0.346,-0.127 0.647,-0.273 0.903,-0.438 0.273,-0.164 0.492,-0.310 0.657,-0.438 0.182,-0.127 0.346,-0.191 0.492,-0.191 0.164,10e-6 0.282,0.036 0.356,0.109 0.091,0.073 0.182,0.200 0.273,0.383 l 1.095,2.491 c -0.912,0.803 -1.944,1.423 -3.093,1.861 -1.149,0.438 -2.308,0.657 -3.476,0.657 -1.807,0 -3.230,-0.492 -4.271,-1.478 -1.040,-0.985 -1.578,-2.409 -1.615,-4.270"/>
		<path d="m 540.010,347.490 c -0.146,0.237 -0.301,0.410 -0.465,0.520 -0.146,0.091 -0.337,0.136 -0.574,0.136 -0.273,2e-5 -0.565,-0.100 -0.876,-0.301 -0.292,-0.200 -0.657,-0.419 -1.095,-0.657 -0.438,-0.255 -0.958,-0.483 -1.560,-0.684 -0.602,-0.200 -1.332,-0.301 -2.190,-0.301 -0.803,2e-5 -1.533,0.118 -2.190,0.355 -0.657,0.219 -1.222,0.520 -1.697,0.903 -0.456,0.383 -0.812,0.830 -1.067,1.341 -0.255,0.511 -0.383,1.058 -0.383,1.642 -10e-6,0.839 0.282,1.514 0.848,2.025 0.565,0.492 1.268,0.930 2.108,1.314 0.857,0.365 1.779,0.720 2.765,1.067 0.985,0.346 1.898,0.784 2.737,1.314 0.857,0.529 1.569,1.204 2.135,2.025 0.565,0.821 0.848,1.889 0.848,3.203 -2e-5,1.295 -0.255,2.537 -0.766,3.723 -0.511,1.168 -1.241,2.199 -2.190,3.093 -0.949,0.894 -2.099,1.606 -3.449,2.135 -1.332,0.529 -2.829,0.793 -4.489,0.793 -1.788,0 -3.376,-0.319 -4.763,-0.958 -1.368,-0.638 -2.482,-1.451 -3.340,-2.436 l 1.286,-1.971 c 0.164,-0.255 0.346,-0.447 0.547,-0.574 0.219,-0.146 0.483,-0.219 0.793,-0.219 0.310,1e-5 0.611,0.127 0.903,0.383 0.310,0.255 0.684,0.538 1.122,0.848 0.438,0.310 0.976,0.593 1.615,0.848 0.657,0.255 1.487,0.383 2.491,0.383 0.876,10e-6 1.660,-0.127 2.354,-0.383 0.693,-0.255 1.277,-0.602 1.752,-1.040 0.492,-0.438 0.866,-0.949 1.122,-1.533 0.255,-0.584 0.383,-1.204 0.383,-1.861 -1e-5,-0.693 -0.164,-1.268 -0.492,-1.724 -0.328,-0.456 -0.757,-0.848 -1.286,-1.177 -0.529,-0.346 -1.140,-0.638 -1.834,-0.876 -0.675,-0.255 -1.368,-0.511 -2.080,-0.766 -0.711,-0.255 -1.414,-0.547 -2.108,-0.876 -0.675,-0.328 -1.277,-0.730 -1.807,-1.204 -0.529,-0.492 -0.958,-1.085 -1.286,-1.779 -0.328,-0.711 -0.492,-1.569 -0.492,-2.573 0,-1.168 0.228,-2.299 0.684,-3.394 0.474,-1.113 1.149,-2.089 2.026,-2.929 0.894,-0.857 1.971,-1.542 3.230,-2.053 1.259,-0.511 2.683,-0.766 4.270,-0.766 1.697,3e-5 3.184,0.282 4.462,0.848 1.277,0.547 2.381,1.295 3.312,2.244 l -1.314,1.889"/>
		<path d="m 577.671,370.707 -2.683,0 c -0.693,0 -1.159,-0.173 -1.396,-0.520 -0.237,-0.346 -0.355,-0.766 -0.355,-1.259 l 0.438,-5.229 c -0.638,1.131 -1.332,2.153 -2.080,3.066 -0.748,0.894 -1.542,1.670 -2.381,2.327 -0.839,0.638 -1.715,1.131 -2.628,1.478 -0.912,0.346 -1.861,0.520 -2.847,0.520 -1.095,-10e-6 -2.089,-0.209 -2.984,-0.629 -0.894,-0.438 -1.670,-1.067 -2.327,-1.889 -0.638,-0.839 -1.140,-1.870 -1.505,-3.093 -0.346,-1.222 -0.520,-2.628 -0.520,-4.216 0,-1.642 0.200,-3.239 0.602,-4.791 0.419,-1.569 1.012,-3.048 1.779,-4.435 0.766,-1.387 1.679,-2.664 2.737,-3.832 1.076,-1.168 2.263,-2.171 3.559,-3.011 1.314,-0.839 2.728,-1.487 4.243,-1.943 1.514,-0.474 3.102,-0.711 4.763,-0.711 1.204,3e-5 2.381,0.091 3.531,0.273 1.149,0.182 2.272,0.511 3.367,0.985 l -3.312,26.912 m -11.964,-3.915 c 0.876,0 1.724,-0.273 2.546,-0.821 0.839,-0.565 1.633,-1.332 2.381,-2.299 0.748,-0.985 1.441,-2.144 2.080,-3.476 0.638,-1.350 1.204,-2.819 1.697,-4.407 l 1.177,-9.308 c -0.748,-0.109 -1.478,-0.164 -2.190,-0.164 -1.624,2e-5 -3.157,0.383 -4.599,1.149 -1.423,0.766 -2.673,1.797 -3.750,3.093 -1.058,1.277 -1.898,2.765 -2.518,4.462 -0.620,1.679 -0.930,3.449 -0.930,5.311 0,2.153 0.346,3.769 1.040,4.845 0.693,1.076 1.715,1.615 3.066,1.615"/>
		<path d="m 584.665,370.707 3.340,-27.843 2.600,0 c 1.168,3e-5 1.752,0.593 1.752,1.779 l -0.410,5.886 c 0.730,-1.533 1.514,-2.856 2.354,-3.969 0.839,-1.131 1.715,-2.016 2.628,-2.655 0.930,-0.638 1.879,-1.022 2.847,-1.149 0.985,-0.127 1.980,0.018 2.984,0.438 l -0.930,4.982 c -2.372,-0.949 -4.453,-0.611 -6.242,1.012 -1.788,1.624 -3.239,4.581 -4.353,8.870 l -1.505,12.648 -5.064,0"/>
		<path d="m 625.221,348.968 c -2e-5,1.204 -0.246,2.318 -0.739,3.340 -0.492,1.022 -1.396,1.943 -2.710,2.765 -1.314,0.803 -3.121,1.505 -5.420,2.108 -2.281,0.584 -5.210,1.058 -8.788,1.423 -0.018,0.182 -0.027,0.365 -0.027,0.547 -10e-6,0.164 -10e-6,0.328 0,0.492 -10e-6,2.409 0.520,4.243 1.560,5.502 1.058,1.241 2.646,1.861 4.763,1.861 1.295,0 2.381,-0.182 3.257,-0.547 0.876,-0.365 1.615,-0.766 2.217,-1.204 0.620,-0.456 1.158,-0.866 1.615,-1.232 0.456,-0.365 0.912,-0.547 1.368,-0.547 0.365,0 0.684,0.164 0.958,0.492 l 1.314,1.587 c -0.949,0.967 -1.870,1.797 -2.765,2.491 -0.894,0.693 -1.816,1.268 -2.765,1.724 -0.930,0.456 -1.907,0.784 -2.929,0.985 -1.003,0.219 -2.098,0.328 -3.285,0.328 -1.587,-10e-6 -3.020,-0.264 -4.298,-0.793 -1.277,-0.529 -2.363,-1.286 -3.257,-2.272 -0.894,-0.985 -1.587,-2.171 -2.080,-3.559 -0.474,-1.405 -0.711,-2.965 -0.711,-4.681 0,-1.441 0.146,-2.865 0.438,-4.270 0.310,-1.423 0.757,-2.774 1.341,-4.051 0.584,-1.277 1.295,-2.454 2.135,-3.531 0.839,-1.095 1.797,-2.044 2.874,-2.847 1.076,-0.803 2.263,-1.423 3.559,-1.861 1.295,-0.456 2.683,-0.684 4.161,-0.684 1.405,3e-5 2.619,0.200 3.641,0.602 1.040,0.401 1.898,0.921 2.573,1.560 0.675,0.620 1.177,1.314 1.505,2.080 0.328,0.748 0.492,1.478 0.492,2.190 m -8.514,-2.710 c -1.113,3e-5 -2.135,0.228 -3.066,0.684 -0.930,0.456 -1.761,1.086 -2.491,1.889 -0.730,0.803 -1.359,1.752 -1.889,2.847 -0.529,1.076 -0.939,2.245 -1.232,3.504 2.719,-0.346 4.900,-0.730 6.543,-1.149 1.660,-0.438 2.929,-0.912 3.805,-1.423 0.894,-0.511 1.478,-1.049 1.752,-1.615 0.292,-0.584 0.438,-1.195 0.438,-1.834 -2e-5,-0.328 -0.073,-0.657 -0.219,-0.985 -0.127,-0.346 -0.346,-0.657 -0.657,-0.930 -0.310,-0.292 -0.711,-0.529 -1.204,-0.711 -0.474,-0.182 -1.067,-0.273 -1.779,-0.273"/>
		<path d="m 659.574,347.490 c -0.146,0.237 -0.301,0.410 -0.465,0.520 -0.146,0.091 -0.337,0.136 -0.574,0.136 -0.273,2e-5 -0.565,-0.100 -0.876,-0.301 -0.292,-0.200 -0.657,-0.419 -1.095,-0.657 -0.438,-0.255 -0.958,-0.483 -1.560,-0.684 -0.602,-0.200 -1.332,-0.301 -2.190,-0.301 -0.803,2e-5 -1.533,0.118 -2.190,0.355 -0.657,0.219 -1.222,0.520 -1.697,0.903 -0.456,0.383 -0.812,0.830 -1.067,1.341 -0.255,0.511 -0.383,1.058 -0.383,1.642 -10e-6,0.839 0.282,1.514 0.848,2.025 0.565,0.492 1.268,0.930 2.108,1.314 0.857,0.365 1.779,0.720 2.765,1.067 0.985,0.346 1.898,0.784 2.737,1.314 0.857,0.529 1.569,1.204 2.135,2.025 0.565,0.821 0.848,1.889 0.848,3.203 -2e-5,1.295 -0.255,2.537 -0.766,3.723 -0.511,1.168 -1.241,2.199 -2.190,3.093 -0.949,0.894 -2.098,1.606 -3.449,2.135 -1.332,0.529 -2.829,0.793 -4.489,0.793 -1.788,0 -3.376,-0.319 -4.763,-0.958 -1.368,-0.638 -2.482,-1.451 -3.340,-2.436 l 1.286,-1.971 c 0.164,-0.255 0.346,-0.447 0.547,-0.574 0.219,-0.146 0.483,-0.219 0.793,-0.219 0.310,1e-5 0.611,0.127 0.903,0.383 0.310,0.255 0.684,0.538 1.122,0.848 0.438,0.310 0.976,0.593 1.615,0.848 0.657,0.255 1.487,0.383 2.491,0.383 0.876,10e-6 1.660,-0.127 2.354,-0.383 0.693,-0.255 1.277,-0.602 1.752,-1.040 0.492,-0.438 0.866,-0.949 1.122,-1.533 0.255,-0.584 0.383,-1.204 0.383,-1.861 -10e-6,-0.693 -0.164,-1.268 -0.492,-1.724 -0.328,-0.456 -0.757,-0.848 -1.286,-1.177 -0.529,-0.346 -1.140,-0.638 -1.834,-0.876 -0.675,-0.255 -1.368,-0.511 -2.080,-0.766 -0.711,-0.255 -1.414,-0.547 -2.108,-0.876 -0.675,-0.328 -1.277,-0.730 -1.806,-1.204 -0.529,-0.492 -0.958,-1.085 -1.286,-1.779 -0.328,-0.711 -0.492,-1.569 -0.492,-2.573 0,-1.168 0.228,-2.299 0.684,-3.394 0.474,-1.113 1.149,-2.089 2.025,-2.929 0.894,-0.857 1.971,-1.542 3.230,-2.053 1.259,-0.511 2.683,-0.766 4.270,-0.766 1.697,3e-5 3.184,0.282 4.462,0.848 1.277,0.547 2.381,1.295 3.312,2.244 l -1.314,1.889"/>
		<path d="m 665.701,365.395 c -10e-6,-0.109 -10e-6,-0.246 0,-0.410 -10e-6,-0.182 0.009,-0.438 0.027,-0.766 0.036,-0.346 0.082,-0.784 0.136,-1.314 0.073,-0.547 0.164,-1.250 0.273,-2.108 l 1.670,-13.634 -3.011,0 c -0.273,2e-5 -0.492,-0.091 -0.657,-0.273 -0.164,-0.200 -0.219,-0.483 -0.164,-0.848 l 0.219,-2.080 4.270,-0.602 2.108,-8.405 c 0.091,-0.292 0.237,-0.520 0.438,-0.684 0.200,-0.182 0.456,-0.273 0.766,-0.273 l 2.737,0 -1.177,9.390 7.200,0 -0.438,3.778 -7.227,0 -1.642,13.387 c -0.091,0.748 -0.164,1.350 -0.219,1.806 -0.054,0.456 -0.100,0.821 -0.136,1.095 -0.018,0.255 -0.036,0.438 -0.054,0.547 -10e-6,0.109 -10e-6,0.191 0,0.246 -10e-6,0.876 0.209,1.542 0.629,1.998 0.438,0.438 1.012,0.657 1.724,0.657 0.456,1e-5 0.857,-0.063 1.204,-0.191 0.346,-0.127 0.647,-0.273 0.903,-0.438 0.273,-0.164 0.492,-0.310 0.657,-0.438 0.182,-0.127 0.346,-0.191 0.492,-0.191 0.164,10e-6 0.282,0.036 0.355,0.109 0.091,0.073 0.182,0.200 0.273,0.383 l 1.095,2.491 c -0.912,0.803 -1.943,1.423 -3.093,1.861 -1.149,0.438 -2.308,0.657 -3.477,0.657 -1.806,0 -3.230,-0.492 -4.270,-1.478 -1.040,-0.985 -1.578,-2.409 -1.615,-4.270"/>
		<path d="m 703.546,370.707 -2.683,0 c -0.693,0 -1.159,-0.173 -1.396,-0.520 -0.237,-0.346 -0.355,-0.766 -0.355,-1.259 l 0.438,-5.229 c -0.638,1.131 -1.332,2.153 -2.080,3.066 -0.748,0.894 -1.542,1.670 -2.381,2.327 -0.839,0.638 -1.715,1.131 -2.628,1.478 -0.912,0.346 -1.861,0.520 -2.847,0.520 -1.095,-10e-6 -2.089,-0.209 -2.984,-0.629 -0.894,-0.438 -1.670,-1.067 -2.327,-1.889 -0.638,-0.839 -1.140,-1.870 -1.505,-3.093 -0.346,-1.222 -0.520,-2.628 -0.520,-4.216 0,-1.642 0.200,-3.239 0.602,-4.791 0.419,-1.569 1.012,-3.048 1.779,-4.435 0.766,-1.387 1.679,-2.664 2.737,-3.832 1.076,-1.168 2.263,-2.171 3.559,-3.011 1.314,-0.839 2.728,-1.487 4.243,-1.943 1.514,-0.474 3.102,-0.711 4.763,-0.711 1.204,3e-5 2.381,0.091 3.531,0.273 1.149,0.182 2.272,0.511 3.367,0.985 l -3.312,26.912 m -11.964,-3.915 c 0.876,0 1.724,-0.273 2.546,-0.821 0.839,-0.565 1.633,-1.332 2.381,-2.299 0.748,-0.985 1.441,-2.144 2.080,-3.476 0.638,-1.350 1.204,-2.819 1.697,-4.407 l 1.177,-9.308 c -0.748,-0.109 -1.478,-0.164 -2.190,-0.164 -1.624,2e-5 -3.157,0.383 -4.599,1.149 -1.423,0.766 -2.673,1.797 -3.750,3.093 -1.058,1.277 -1.898,2.765 -2.518,4.462 -0.620,1.679 -0.930,3.449 -0.930,5.311 0,2.153 0.346,3.769 1.040,4.845 0.693,1.076 1.715,1.615 3.066,1.615"/>
		<path d="m 710.539,370.707 3.340,-27.843 2.573,0 c 1.168,3e-5 1.752,0.593 1.752,1.779 l -0.355,5.064 c 1.460,-2.390 3.111,-4.188 4.955,-5.393 1.843,-1.204 3.732,-1.806 5.667,-1.806 1.168,3e-5 2.199,0.237 3.093,0.711 0.912,0.456 1.651,1.131 2.217,2.025 0.565,0.876 0.949,1.971 1.149,3.285 0.200,1.295 0.200,2.783 0,4.462 l -2.080,17.713 -5.174,0 2.080,-17.713 c 0.255,-2.098 0.127,-3.650 -0.383,-4.654 -0.511,-1.003 -1.451,-1.505 -2.819,-1.505 -0.857,3e-5 -1.733,0.237 -2.628,0.711 -0.876,0.456 -1.724,1.122 -2.546,1.998 -0.821,0.857 -1.587,1.898 -2.299,3.121 -0.693,1.222 -1.286,2.582 -1.779,4.079 l -1.587,13.962 -5.174,0"/>
		<path d="m 758.848,370.707 c -0.675,0 -1.131,-0.173 -1.368,-0.520 -0.237,-0.346 -0.355,-0.766 -0.355,-1.259 l 0.465,-5.448 c -0.693,1.149 -1.441,2.199 -2.244,3.148 -0.803,0.930 -1.651,1.733 -2.546,2.409 -0.894,0.657 -1.825,1.168 -2.792,1.533 -0.949,0.346 -1.925,0.520 -2.929,0.520 -2.372,-10e-6 -4.225,-0.857 -5.557,-2.573 -1.314,-1.715 -1.971,-4.252 -1.971,-7.611 0,-1.514 0.155,-3.020 0.465,-4.517 0.310,-1.496 0.757,-2.920 1.341,-4.270 0.584,-1.368 1.277,-2.637 2.080,-3.805 0.821,-1.186 1.733,-2.208 2.737,-3.066 1.003,-0.857 2.080,-1.524 3.230,-1.998 1.168,-0.492 2.390,-0.739 3.668,-0.739 1.350,3e-5 2.573,0.264 3.668,0.793 1.113,0.511 2.062,1.250 2.847,2.217 l 1.861,-15.194 5.092,0 -4.982,40.382 -2.710,0 m -9.801,-3.778 c 0.839,1e-5 1.697,-0.264 2.573,-0.793 0.876,-0.547 1.715,-1.295 2.518,-2.244 0.821,-0.949 1.578,-2.071 2.272,-3.367 0.711,-1.314 1.323,-2.746 1.834,-4.298 l 0.903,-7.173 c -0.693,-0.930 -1.514,-1.578 -2.464,-1.943 -0.930,-0.383 -1.879,-0.574 -2.847,-0.574 -0.930,3e-5 -1.806,0.191 -2.628,0.574 -0.803,0.383 -1.542,0.912 -2.217,1.587 -0.675,0.675 -1.286,1.469 -1.834,2.381 -0.529,0.894 -0.976,1.852 -1.341,2.874 -0.365,1.022 -0.647,2.089 -0.848,3.203 -0.182,1.095 -0.273,2.181 -0.273,3.257 0,2.135 0.374,3.759 1.122,4.873 0.766,1.095 1.843,1.642 3.230,1.642"/>
		<path d="m 777.451,342.918 -3.367,27.788 -5.092,0 3.340,-27.788 5.119,0 m 1.806,-8.624 c -2e-5,0.492 -0.100,0.958 -0.301,1.396 -0.200,0.419 -0.465,0.793 -0.793,1.122 -0.328,0.328 -0.711,0.593 -1.149,0.793 -0.419,0.182 -0.857,0.273 -1.314,0.273 -0.438,3e-5 -0.866,-0.091 -1.286,-0.273 -0.419,-0.200 -0.784,-0.465 -1.095,-0.793 -0.310,-0.328 -0.565,-0.702 -0.766,-1.122 -0.182,-0.438 -0.273,-0.903 -0.273,-1.396 0,-0.492 0.091,-0.958 0.273,-1.396 0.200,-0.438 0.456,-0.821 0.766,-1.149 0.328,-0.346 0.702,-0.611 1.122,-0.793 0.419,-0.200 0.848,-0.301 1.286,-0.301 0.456,4e-5 0.894,0.100 1.314,0.301 0.438,0.182 0.821,0.438 1.149,0.766 0.328,0.328 0.584,0.720 0.766,1.177 0.200,0.438 0.301,0.903 0.301,1.396"/>
		<path d="m 781.444,370.707 3.340,-27.843 2.573,0 c 1.168,3e-5 1.752,0.593 1.752,1.779 l -0.355,5.064 c 1.460,-2.390 3.111,-4.188 4.955,-5.393 1.843,-1.204 3.732,-1.806 5.667,-1.806 1.168,3e-5 2.199,0.237 3.093,0.711 0.912,0.456 1.651,1.131 2.217,2.025 0.565,0.876 0.949,1.971 1.149,3.285 0.200,1.295 0.200,2.783 0,4.462 l -2.080,17.713 -5.174,0 2.080,-17.713 c 0.255,-2.098 0.127,-3.650 -0.383,-4.654 -0.511,-1.003 -1.451,-1.505 -2.819,-1.505 -0.857,3e-5 -1.733,0.237 -2.628,0.711 -0.876,0.456 -1.724,1.122 -2.546,1.998 -0.821,0.857 -1.587,1.898 -2.299,3.121 -0.693,1.222 -1.286,2.582 -1.779,4.079 l -1.587,13.962 -5.174,0"/>
		<path d="m 831.778,350.666 c -2e-5,0.912 -0.109,1.724 -0.328,2.436 -0.200,0.711 -0.456,1.378 -0.766,1.998 -0.292,0.602 -0.620,1.177 -0.985,1.724 -0.346,0.529 -0.675,1.067 -0.985,1.615 -0.292,0.529 -0.538,1.086 -0.739,1.670 -0.200,0.565 -0.301,1.186 -0.301,1.861 -2e-5,0.511 0.082,0.985 0.246,1.423 0.182,0.438 0.401,0.876 0.657,1.314 0.255,0.419 0.529,0.848 0.821,1.286 0.310,0.438 0.593,0.903 0.848,1.396 0.255,0.492 0.465,1.022 0.629,1.587 0.182,0.565 0.273,1.195 0.273,1.889 -0.018,1.295 -0.328,2.537 -0.930,3.723 -0.602,1.186 -1.469,2.226 -2.600,3.121 -1.113,0.894 -2.473,1.606 -4.079,2.135 -1.606,0.529 -3.413,0.793 -5.420,0.793 -1.624,0 -3.093,-0.173 -4.407,-0.520 -1.314,-0.328 -2.436,-0.793 -3.367,-1.396 -0.930,-0.602 -1.642,-1.332 -2.135,-2.190 -0.511,-0.839 -0.766,-1.779 -0.766,-2.819 0,-1.186 0.255,-2.226 0.766,-3.121 0.492,-0.912 1.159,-1.688 1.998,-2.327 0.857,-0.657 1.852,-1.186 2.984,-1.587 1.131,-0.419 2.317,-0.720 3.559,-0.903 1.259,-0.200 2.546,-0.292 3.860,-0.273 1.314,10e-6 2.582,0.091 3.805,0.273 -0.146,-0.328 -0.273,-0.666 -0.383,-1.012 -0.091,-0.365 -0.127,-0.757 -0.109,-1.177 -1e-5,-0.565 0.082,-1.149 0.246,-1.752 0.164,-0.602 0.438,-1.268 0.821,-1.998 -0.693,0.474 -1.469,0.839 -2.327,1.095 -0.857,0.255 -1.852,0.383 -2.984,0.383 -1.058,10e-6 -2.053,-0.173 -2.984,-0.520 -0.930,-0.346 -1.743,-0.857 -2.436,-1.533 -0.693,-0.693 -1.241,-1.551 -1.642,-2.573 -0.401,-1.022 -0.602,-2.208 -0.602,-3.559 -1e-5,-1.332 0.237,-2.637 0.711,-3.915 0.492,-1.277 1.204,-2.409 2.135,-3.394 0.949,-1.003 2.117,-1.806 3.504,-2.409 1.405,-0.602 3.011,-0.903 4.818,-0.903 0.985,3e-5 1.916,0.118 2.792,0.355 0.894,0.219 1.706,0.565 2.436,1.040 l 7.611,0 -0.219,1.724 c -0.091,0.711 -0.465,1.177 -1.122,1.396 l -3.367,0.657 c 0.310,0.894 0.465,1.889 0.465,2.984 m -10.677,7.419 c 0.949,10e-6 1.788,-0.209 2.518,-0.629 0.748,-0.419 1.368,-0.967 1.861,-1.642 0.511,-0.693 0.894,-1.469 1.149,-2.327 0.273,-0.876 0.410,-1.752 0.410,-2.628 -2e-5,-1.551 -0.392,-2.728 -1.177,-3.531 -0.766,-0.821 -1.852,-1.231 -3.257,-1.232 -0.949,3e-5 -1.788,0.200 -2.518,0.602 -0.730,0.383 -1.350,0.903 -1.861,1.560 -0.492,0.657 -0.866,1.414 -1.122,2.272 -0.255,0.839 -0.383,1.715 -0.383,2.628 -10e-6,1.587 0.383,2.810 1.149,3.668 0.784,0.839 1.861,1.259 3.230,1.259 m 5.311,13.196 c -10e-6,-0.438 -0.036,-0.839 -0.109,-1.204 -0.073,-0.383 -0.173,-0.748 -0.301,-1.095 -2.372,-0.383 -4.416,-0.529 -6.132,-0.438 -1.715,0.091 -3.130,0.346 -4.243,0.766 -1.113,0.419 -1.934,0.958 -2.464,1.615 -0.529,0.675 -0.793,1.396 -0.793,2.162 0,1.259 0.529,2.226 1.587,2.902 1.076,0.675 2.610,1.012 4.599,1.012 1.168,0 2.235,-0.155 3.203,-0.465 0.967,-0.292 1.788,-0.702 2.464,-1.232 0.693,-0.511 1.231,-1.113 1.615,-1.806 0.383,-0.693 0.574,-1.432 0.574,-2.217"/>
		<path d="m 849.889,370.707 4.873,-40.382 5.092,0 -2.381,19.356 c 0.693,-1.095 1.432,-2.080 2.217,-2.956 0.803,-0.876 1.633,-1.624 2.491,-2.244 0.876,-0.638 1.779,-1.122 2.710,-1.451 0.930,-0.346 1.879,-0.520 2.847,-0.520 2.372,3e-5 4.216,0.857 5.530,2.573 1.332,1.697 1.998,4.225 1.998,7.583 -3e-5,1.514 -0.155,3.029 -0.465,4.544 -0.310,1.496 -0.757,2.929 -1.341,4.298 -0.584,1.350 -1.286,2.610 -2.108,3.778 -0.803,1.168 -1.706,2.190 -2.710,3.066 -1.003,0.857 -2.089,1.533 -3.257,2.025 -1.149,0.474 -2.363,0.711 -3.641,0.711 -1.478,-10e-6 -2.810,-0.301 -3.997,-0.903 -1.168,-0.620 -2.135,-1.487 -2.902,-2.600 l -0.355,1.615 c -0.164,0.511 -0.365,0.894 -0.602,1.149 -0.237,0.237 -0.647,0.355 -1.232,0.355 l -2.765,0 m 15.879,-24.037 c -0.857,3e-5 -1.733,0.273 -2.628,0.821 -0.876,0.529 -1.724,1.277 -2.546,2.245 -0.803,0.967 -1.560,2.117 -2.272,3.449 -0.693,1.314 -1.295,2.746 -1.806,4.298 l -0.848,7.063 c 0.693,0.930 1.505,1.587 2.436,1.971 0.949,0.365 1.898,0.547 2.847,0.547 0.930,10e-6 1.806,-0.191 2.628,-0.574 0.821,-0.383 1.569,-0.912 2.244,-1.587 0.675,-0.675 1.277,-1.460 1.806,-2.354 0.547,-0.912 1.003,-1.879 1.368,-2.902 0.365,-1.022 0.638,-2.080 0.821,-3.175 0.200,-1.113 0.301,-2.208 0.301,-3.285 -2e-5,-2.153 -0.383,-3.778 -1.149,-4.873 -0.748,-1.095 -1.816,-1.642 -3.203,-1.642"/>
		<path d="m 885.347,378.865 c -0.219,0.419 -0.465,0.720 -0.739,0.903 -0.273,0.182 -0.620,0.273 -1.040,0.273 l -3.832,0 6.050,-11.060 -7.173,-26.063 4.298,0 c 0.419,3e-5 0.720,0.100 0.903,0.301 0.200,0.200 0.346,0.447 0.438,0.739 l 4.298,16.974 c 0.091,0.401 0.164,0.793 0.219,1.177 0.054,0.383 0.100,0.784 0.136,1.204 0.164,-0.419 0.328,-0.821 0.492,-1.204 0.182,-0.401 0.374,-0.812 0.574,-1.232 l 8.459,-16.946 c 0.146,-0.310 0.355,-0.556 0.629,-0.739 0.273,-0.182 0.556,-0.273 0.848,-0.273 l 4.134,0 -18.699,35.947"/>
	</g>
	<g id="raven">
		<path fill="#212121" d="m 487.623,118.479 c 0,0 0.174,-13.055 -18.626,-30.462 -18.799,-17.407 -51.421,-26.083 -71.238,-30.145 -19.817,-4.061 -57.359,-2.954 -60.682,-8.985 -3.323,-6.031 -4.800,-14.278 -14.401,-21.786 -9.600,-7.508 -42.219,-21.786 -84.069,-22.279 -41.850,-0.492 -90.077,15.656 -96.866,18.267 9.748,-0.696 18.643,0.872 20.859,4.503 -5.662,2.831 -48.188,26.655 -62.462,37.447 8.877,-0.870 13.490,2.089 13.490,2.089 -140.953,93.078 -134.007,215.539 -69.500,312.374 -5.662,-70.406 16.740,-102.902 16.740,-102.902 -0.541,34.475 12.782,56.147 34.793,75.816 -0.107,-42.031 20.842,-60.800 20.842,-60.800 -3.885,38.808 3.185,59.735 20.186,92.808 0.653,-44.762 32.495,-71.145 32.495,-71.145 0,0 2.707,54.897 -35.941,103.148 52.681,-35.449 73.360,-79.269 73.360,-79.269 0,0 8.37,16.740 -11.816,63.267 91.992,-51.071 58.590,-196.720 139.384,-245.803 20.925,-11.077 85.149,-44.588 153.454,-36.144 z"/>
		<path fill="#fafafa" d="m 294.680,61.248 a 5.418,5.418 0 1 1 -10.836,0 5.418,5.418 0 1 1 10.836,0 z"/>
		<path fill="#f7cf0d" d="m 280.486,54.410 c -6.085,1.701 -10.651,7.052 -10.651,13.681 0,7.979 6.503,14.438 14.483,14.438 7.979,0 14.438,-6.459 14.438,-14.438 0,-6.048 -3.727,-11.216 -9.001,-13.369 0.647,0.395 1.337,0.714 1.871,1.247 0.862,0.862 1.523,1.890 2.005,3.030 0.482,1.140 0.757,2.427 0.757,3.743 0,1.315 -0.275,2.558 -0.757,3.698 -0.482,1.140 -1.142,2.168 -2.005,3.030 -0.862,0.862 -1.890,1.567 -3.030,2.049 -1.140,0.482 -2.427,0.757 -3.743,0.757 -1.315,0 -2.558,-0.275 -3.698,-0.757 -1.140,-0.482 -2.168,-1.187 -3.030,-2.049 -0.862,-0.862 -1.567,-1.890 -2.049,-3.030 -0.482,-1.140 -0.713,-2.382 -0.713,-3.698 0,-1.315 0.230,-2.603 0.713,-3.743 0.482,-1.140 1.187,-2.168 2.049,-3.030 0.671,-0.671 1.514,-1.111 2.362,-1.559 z"/>
		<path fill="#bdbdbd" d="m 325.083,38.942 c 6.467,8.914 4.438,15.622 11.541,18.436 6.875,2.523 41.625,1.537 76.962,11.285 35.336,9.748 52.503,25.076 61.455,37.112 -33.134,-3.955 -102.310,1.387 -137.473,12.529 -24.779,7.852 -38.784,15.051 -40.071,9.473 -4.273,-18.523 17.963,-54.077 8.450,-68.937 11.192,4.727 18.903,-7.402 19.135,-19.900 z"/>
		<path fill="#bdbdbd" d="m 291.287,114.614 c 0,0 -5.662,12.062 -1.477,18.709 4.185,6.646 9.847,6.646 38.649,-3.200 28.802,-9.846 79.515,-19.940 130.720,-19.448 -78.038,7.877 -126.535,23.879 -147.706,31.756 -21.171,7.877 -28.310,2.708 -31.264,-5.415 -2.954,-8.123 1.230,-16.986 11.077,-22.402 z"/>
		<path fill="#424242" d="M 317.258,34.237 C 311.414,23.312 263.961,4.819 174.844,19.097 c 19.940,3.446 23.387,10.093 23.387,10.093 0,0 -39.142,7.385 -73.114,29.295 11.570,-0.492 16.001,4.677 16.001,4.677 -89.453,58.148 -153.673,126.084 -105.029,258.326 11.702,-56.460 46.684,-85.756 46.684,-85.756 -11.574,44.142 -0.862,63.828 9.116,82.817 10.798,-35.610 45.109,-54.285 45.109,-54.285 -8.729,34.608 -4.438,55.209 1.843,77.163 10.087,-27.721 42.002,-47.749 42.002,-47.749 0,0 7.258,32.901 -8.462,79.667 33.726,-36.434 34.38,-62.724 34.38,-62.724 0,0 12.003,23.344 6.044,59.362 27.009,-56.504 -0.514,-74.464 9.796,-137.452 0,0 -15.122,33.250 -28.458,40.922 -7.195,-35.436 0.245,-116.556 91.726,-179.694 -33.227,6.456 -61.196,-24.723 -102.878,-11.488 40.907,-23.499 60.224,-33.728 88.946,-35.643 28.722,-1.914 34.337,7.218 40.913,4.135 6.256,-2.933 7.145,-11.405 4.405,-16.527 z"/>
		<path fill="#616161" d="m 312.376,41.325 c 8.691,-18.350 -98.496,-23.055 -161.615,15.452 14.502,-0.228 17.455,5.127 17.455,5.127 0,0 -51.162,34.649 -75.484,60.892 16.711,-7.659 31.773,-5.188 31.773,-5.188 -64.081,49.991 -73.897,93.093 -78.165,147.566 33.709,-53.131 67.372,-63.314 67.372,-63.314 -18.064,33.018 -20.850,64.287 -14.411,86.200 20.888,-31.333 60.185,-45.874 60.185,-45.874 -6.108,18.605 -11.273,45.922 -8.006,67.312 6.897,-10.446 13.031,-14.906 27.386,-24.866 -16.506,-79.235 48.790,-164.576 89.221,-185.333 -24.165,2.158 -70.407,-38.518 -118.846,12.607 23.054,-34.126 60.064,-59.749 102.790,-69.774 40.229,-9.439 55.832,8.718 60.343,-0.806 z"/>
		<path fill="#b71c1c" d="m 285.871,93.760 c -91.481,63.138 -98.907,144.245 -91.712,179.681 13.335,-7.671 28.431,-40.909 28.431,-40.909 6.031,-40.187 7.325,-85.799 63.280,-138.771 z"/>
	</g>
	<g id="headset">
		<path fill="#00acc1" d="m 250.262,98.976 a 52.222,52.222 0 1 1 -104.444,0 52.222,52.222 0 1 1 104.444,0 z"/>
		<path fill="#006064" d="m 189.416,113.843 c 0,0 51.670,52.865 184.695,48.133 5.635,-10.409 1.683,-8.984 1.683,-8.984 0,0 -109.233,2.416 -163.566,-65.101 -26.710,2.572 -22.812,25.951 -22.812,25.951 z"/>
		<path fill="#4dd0e1" d="m 387.781,157.870 a 11.602,11.602 0 1 1 -23.205,0 11.602,11.602 0 1 1 23.205,0 z"/>
		<path fill="#263238" d="m 158.802,0 c -11.813,0 -21.390,9.576 -21.390,21.390 0,3.478 0.843,6.722 2.317,9.625 l 0.223,0.445 c 0.021,0.039 0.023,0.094 0.044,0.134 l 38.948,77.051 38.191,-19.340 -39.216,-77.585 -0.044,0 C 174.345,4.766 167.136,4.4e-4 158.803,4.4e-4 z"/>
		<path fill="#263238" d="m 226.629,98.976 a 28.589,28.589 0 1 1 -57.178,0 28.589,28.589 0 1 1 57.178,0 z"/>
	</g>
</svg>
