<svg xmlns="http://www.w3.org/2000/svg" viewBox="0 0 512 512">
	<circle fill="#ffb74d" cx="256" cy="256" r="256"/>
	<g id="raven">
		<path fill="#212121" d="m 185.431,114.020 c -48.654,0.597 -102.751,18.734 -110.578,21.744 11.601,-0.828 22.183,1.035 24.820,5.356 -6.738,3.369 -57.367,31.758 -74.355,44.602 10.565,-1.035 16.069,2.439 16.069,2.439 -14.021,9.258 -26.772,18.770 -38.397,28.479 -1.979,12.829 -2.969,25.967 -2.969,39.352 0,123.414 87.313,226.449 203.548,250.643 32.235,-75.592 32.760,-173.290 100.289,-214.314 24.902,-13.183 101.310,-53.060 182.599,-43.011 0,0 0.205,-15.559 -22.168,-36.276 -22.373,-20.716 -61.165,-31.017 -84.750,-35.851 -23.584,-4.834 -68.278,-3.535 -72.233,-10.713 -3.955,-7.177 -5.704,-16.998 -17.130,-25.934 -11.425,-8.935 -50.218,-25.931 -100.024,-26.517 -1.556,-0.018 -3.150,-0.018 -4.720,0 z"/>
		<path fill="#fafafa" d="M 250.406 174.75 C 246.845 174.75 243.968 177.626 243.968 181.187 C 243.968 184.748 246.845 187.625 250.406 187.625 C 253.967 187.625 256.875 184.748 256.875 181.187 C 256.875 177.626 253.967 174.75 250.406 174.75 z"/>
		<path fill="#ffc107" d="m 239.970,173.055 c -7.242,2.025 -12.675,8.393 -12.675,16.281 0,9.496 7.740,17.183 17.236,17.183 9.496,0 17.183,-7.686 17.183,-17.183 0,-7.198 -4.436,-13.348 -10.713,-15.910 0.770,0.470 1.591,0.849 2.227,1.484 1.026,1.026 1.812,2.249 2.386,3.606 0.573,1.357 0.901,2.889 0.901,4.454 0,1.566 -0.327,3.044 -0.901,4.402 -0.573,1.356 -1.360,2.580 -2.386,3.606 -1.026,1.026 -2.249,1.865 -3.606,2.439 -1.357,0.573 -2.889,0.901 -4.454,0.901 -1.566,0 -3.044,-0.327 -4.402,-0.901 -1.357,-0.573 -2.580,-1.413 -3.606,-2.439 -1.026,-1.026 -1.865,-2.249 -2.439,-3.606 -0.573,-1.357 -0.848,-2.835 -0.848,-4.402 0,-1.565 0.274,-3.097 0.848,-4.454 0.573,-1.356 1.413,-2.580 2.439,-3.606 0.799,-0.799 1.802,-1.323 2.810,-1.856 z"/>
		<path fill="#bdbdbd" d="m 293.043,154.646 c 7.697,10.609 5.282,18.591 13.734,21.941 8.183,3.003 49.538,1.829 91.592,13.430 42.054,11.601 62.484,29.843 73.137,44.167 -39.433,-4.707 -121.759,1.650 -163.605,14.911 -29.490,9.344 -46.157,17.912 -47.688,11.273 -5.086,-22.044 21.377,-64.357 10.056,-82.041 13.320,5.626 22.496,-8.809 22.773,-23.682 z"/>
		<path fill="#bdbdbd" d="m 252.823,244.702 c 0,0 -6.738,14.355 -1.757,22.265 4.980,7.910 11.719,7.910 45.997,-3.808 34.278,-11.718 94.630,-23.730 155.569,-23.144 -92.872,9.375 -150.588,28.418 -175.784,37.793 -25.195,9.375 -33.692,3.222 -37.207,-6.445 -3.515,-9.668 1.464,-20.215 13.183,-26.660 z"/>
		<path fill="#424242" d="m 184.476,124.839 c -20.317,0.123 -43.704,1.957 -70.218,6.205 23.730,4.101 27.843,11.985 27.843,11.985 0,0 -46.600,8.822 -87.030,34.897 13.769,-0.585 19.039,5.568 19.039,5.568 -27.015,17.561 -52.115,35.829 -73.559,55.951 -0.350,5.479 -0.530,10.979 -0.530,16.546 0,65.129 24.328,124.584 64.384,169.765 2.945,-1.927 4.826,-2.969 4.826,-2.969 -0.567,2.249 -1.113,4.423 -1.591,6.576 12.673,13.764 26.819,26.135 42.215,36.859 6.717,-5.355 11.508,-8.432 11.508,-8.432 0,0 1.328,6.212 1.803,17.077 8.660,5.267 17.646,10.037 26.941,14.266 1.963,-7.123 2.121,-11.190 2.121,-11.190 0,0 2.601,5.138 5.038,14.319 5.417,2.267 10.894,4.307 16.493,6.205 2.389,-34.398 -11.350,-60.627 -2.704,-113.441 0,0 -17.965,39.556 -33.836,48.686 -8.563,-42.172 0.275,-138.696 109.146,-213.837 -39.543,7.683 -72.800,-29.432 -122.404,-13.682 48.683,-27.967 71.675,-40.149 105.858,-42.428 34.181,-2.278 40.860,8.601 48.686,4.932 7.446,-3.491 8.511,-13.580 5.250,-19.676 -5.216,-9.750 -38.329,-24.553 -99.281,-24.184 z"/>
		<path fill="#616161" d="m 228.230,141.068 c -41.563,-0.503 -100.410,9.013 -142.664,34.791 17.259,-0.271 20.789,6.098 20.789,6.098 0,0 -60.895,41.267 -89.841,72.498 19.887,-9.115 37.814,-6.205 37.814,-6.205 -21.826,17.027 -38.307,33.394 -50.913,49.587 3.513,21.370 9.679,41.855 18.138,61.096 12.125,-8.034 19.941,-10.395 19.941,-10.394 -4.963,9.072 -8.925,17.990 -12.039,26.729 7.970,15.109 17.393,29.295 28.108,42.428 19.909,-14.352 38.397,-21.161 38.397,-21.161 -4.648,14.157 -8.835,32.514 -10.235,50.595 5.039,4.493 10.259,8.799 15.645,12.887 4.632,-3.835 10.164,-7.791 17.660,-12.993 -19.643,-94.297 58.059,-195.871 106.176,-220.573 -28.759,2.568 -83.798,-45.836 -141.444,15.009 27.436,-40.613 71.503,-71.068 122.352,-82.999 47.876,-11.234 66.440,10.328 71.809,-1.007 4.525,-9.554 -17.367,-15.996 -49.693,-16.387 z"/>
		<path fill="#b71c1c" d="M 246.368,219.878 C 137.497,295.019 128.659,391.543 137.222,433.716 c 15.870,-9.130 33.836,-48.686 33.836,-48.686 7.177,-47.826 8.717,-102.108 75.309,-165.151 z"/>
	</g>
	<g id="headset">
		<path fill="#898989" d="M 141.843 163.937 C 107.519 163.937 79.687 191.769 79.687 226.093 C 79.687 260.417 107.519 288.25 141.843 288.25 C 176.167 288.25 204 260.417 204 226.093 C 204 191.769 176.167 163.937 141.843 163.937 z"/>
		<path fill="#4c4c4c" d="m 131.588,243.785 c 0,0 61.492,62.914 219.803,57.283 6.707,-12.387 2.003,-10.691 2.003,-10.691 0,0 -129.997,2.875 -194.658,-77.476 -31.787,3.061 -27.148,30.884 -27.148,30.884 z"/>
		<path fill="#b5b5b5" d="M 353.843 282.375 C 346.217 282.375 340.031 288.561 340.031 296.187 C 340.031 303.813 346.217 310 353.843 310 C 361.469 310 367.656 303.813 367.656 296.187 C 367.656 288.561 361.469 282.375 353.843 282.375 z"/>
		<path fill="#303030" d="m 95.155,108.301 c -14.059,0 -25.456,11.397 -25.456,25.456 0,4.140 1.004,8.000 2.757,11.455 l 0.265,0.530 c 0.025,0.047 0.027,0.112 0.052,0.159 l 46.352,91.697 45.451,-23.017 -46.670,-92.334 -0.052,0 c -4.202,-8.275 -12.782,-13.948 -22.699,-13.948 z"/>
		<path fill="#303030" d="M 141.843 192.062 C 123.053 192.062 107.812 207.303 107.812 226.093 C 107.812 244.884 123.053 260.125 141.843 260.125 C 160.634 260.125 175.875 244.884 175.875 226.093 C 175.875 207.303 160.634 192.062 141.843 192.062 z"/>
	</g>
</svg>
