<svg xmlns="http://www.w3.org/2000/svg" viewBox="0 0 512 512">
	<rect fill="#ffb74d" x="0" y="0" width="512" height="512"/>
	<g id="raven">
		<path fill="#212121" d="M 156.25,129.531 C 103.953,130.174 45.819,149.639 37.406,152.875 49.875,151.984 61.227,154.012 64.062,158.656 58.362,161.506 23.505,180.972 0,195.875 0.286,299.561 0,406.962 0,512 l 189.906,0 c 22.425,-73.077 32.383,-153.639 93.625,-190.843 26.765,-14.170 108.939,-57.052 196.312,-46.25 0,0 0.203,-16.701 -23.843,-38.968 -24.048,-22.268 -65.775,-33.365 -91.125,-38.562 -25.350,-5.195 -73.373,-3.786 -77.625,-11.5 -4.250,-7.715 -6.124,-18.240 -18.406,-27.843 -12.280,-9.604 -53.998,-27.869 -107.531,-28.5 -1.672,-0.019 -3.375,-0.020 -5.062,0 z"/>
		<path fill="#fafafa" d="m 226.083,194.751 c -3.826,0 -6.926,3.140 -6.926,6.968 0,3.828 3.099,6.927 6.926,6.927 3.828,0 6.927,-3.099 6.927,-6.927 0,-3.828 -3.099,-6.968 -6.927,-6.968 z"/>
		<path fill="#ffc107" d="m 214.872,192.955 c -7.783,2.176 -13.623,9.021 -13.623,17.500 0,10.206 8.318,18.468 18.525,18.468 10.206,0 18.468,-8.261 18.468,-18.468 0,-7.736 -4.768,-14.346 -11.514,-17.101 0.827,0.506 1.710,0.913 2.394,1.595 1.102,1.102 1.948,2.416 2.565,3.875 0.616,1.458 0.968,3.104 0.968,4.788 0,1.682 -0.351,3.272 -0.968,4.730 -0.616,1.458 -1.460,2.772 -2.565,3.875 -1.102,1.102 -2.416,2.004 -3.874,2.621 -1.458,0.616 -3.104,0.968 -4.788,0.968 -1.682,0 -3.272,-0.351 -4.730,-0.968 -1.458,-0.616 -2.772,-1.518 -3.875,-2.621 -1.102,-1.102 -2.004,-2.416 -2.621,-3.875 -0.616,-1.458 -0.912,-3.047 -0.912,-4.730 0,-1.682 0.295,-3.328 0.912,-4.788 0.616,-1.458 1.518,-2.772 2.621,-3.875 0.858,-0.858 1.937,-1.422 3.020,-1.994 z"/>
		<path fill="#bdbdbd" d="m 271.918,173.168 c 8.272,11.402 5.676,19.982 14.761,23.582 8.794,3.227 53.244,1.965 98.446,14.435 45.200,12.468 67.159,32.076 78.610,47.473 -42.384,-5.059 -130.871,1.773 -175.850,16.026 -31.697,10.044 -49.611,19.253 -51.257,12.117 -5.466,-23.693 22.977,-69.173 10.809,-88.180 14.316,6.047 24.179,-9.468 24.477,-25.454 z"/>
		<path fill="#bdbdbd" d="m 228.687,269.965 c 0,0 -7.242,15.429 -1.889,23.932 5.353,8.501 12.595,8.501 49.438,-4.092 36.843,-12.595 101.712,-25.506 167.211,-24.876 -99.823,10.076 -161.857,30.544 -188.940,40.622 -27.080,10.076 -36.212,3.463 -39.991,-6.927 -3.778,-10.391 1.574,-21.727 14.170,-28.655 z"/>
		<path fill="#424242" d="M 155.25 141.125 C 133.412 141.257 108.248 143.215 79.75 147.781 C 105.256 152.189 109.656 160.687 109.656 160.687 C 109.656 160.687 59.581 170.129 16.125 198.156 C 30.925 197.527 36.593 204.156 36.593 204.156 C 23.955 212.371 11.699 220.728 0 229.343 L 0 486.625 C 15.582 469.979 31.312 461.406 31.312 461.406 C 26.293 481.306 24.663 497.555 25.093 512 L 70.218 512 C 79.847 503.782 87.406 499.031 87.406 499.031 C 87.406 499.031 88.399 503.689 89.031 512 L 142.593 512 C 139.765 487.092 134.201 461.199 140.812 420.812 C 140.812 420.812 121.495 463.341 104.437 473.156 C 95.234 427.828 104.729 324.044 221.75 243.281 C 179.247 251.538 143.472 211.666 90.156 228.593 C 142.482 198.533 167.197 185.448 203.937 183 C 240.676 180.551 247.870 192.225 256.281 188.281 C 264.283 184.529 265.411 173.708 261.906 167.156 C 256.300 156.674 220.763 140.728 155.25 141.125 z "/>
		<path fill="#616161" d="M 198.5 158.593 C 154.091 158.654 93.091 169.031 48.937 195.968 C 67.487 195.677 71.25 202.531 71.25 202.531 C 71.25 202.531 32.127 229.043 0 256.593 L 0 273.656 C 9.199 272.762 15.343 273.781 15.343 273.781 C 9.924 278.009 4.830 282.217 0 286.375 L 0 471.656 C 26.800 445.475 60.093 433.156 60.093 433.156 C 52.955 454.899 46.850 485.933 49.031 512 L 55.156 512 C 62.260 503.313 70.207 497.614 84.875 487.437 C 63.761 386.082 147.281 276.925 199 250.375 C 168.089 253.135 108.959 201.101 47 266.5 C 76.489 222.848 123.815 190.074 178.468 177.25 C 229.927 165.176 249.885 188.401 255.656 176.218 C 260.693 165.583 235.295 158.543 198.5 158.593 z "/>
		<path fill="#b71c1c" d="M 221.760,243.290 C 104.741,324.053 95.241,427.802 104.446,473.131 c 17.058,-9.813 36.367,-52.329 36.367,-52.329 7.713,-51.405 9.369,-109.749 80.945,-177.510 z"/>
	</g>
	<g id="headset">
		<path fill="#898989" d="m 109.413,183.151 c -36.892,0 -66.805,29.913 -66.805,66.805 0,36.892 29.913,66.805 66.805,66.805 36.892,0 66.807,-29.913 66.807,-66.805 0,-36.892 -29.914,-66.805 -66.807,-66.805 z"/>
		<path fill="#4c4c4c" d="m 127.565,235.769 c -34.167,3.290 -29.167,33.215 -29.167,33.215 0,0 66.060,67.601 236.221,61.548 7.209,-13.315 2.169,-11.475 2.169,-11.475 0,0 -139.721,3.076 -209.223,-83.288 z"/>
		<path fill="#b5b5b5" d="m 337.289,310.462 c -8.197,0 -14.855,6.657 -14.855,14.855 0,8.195 6.657,14.812 14.855,14.812 8.195,0 14.812,-6.616 14.812,-14.812 0,-8.197 -6.616,-14.855 -14.812,-14.855 z"/>
		<path fill="#303030" d="m 109.413,213.403 c -20.196,0 -36.553,16.355 -36.553,36.553 0,20.197 16.357,36.594 36.553,36.594 20.197,0 36.553,-16.397 36.553,-36.594 0,-20.197 -16.355,-36.553 -36.553,-36.553 z"/>
		<path fill="#303030" d="m 59.215,123.356 c -15.112,0 -27.373,12.260 -27.373,27.373 0,4.449 1.077,8.595 2.961,12.308 l 0.292,0.543 c 0.026,0.050 0.056,0.156 0.084,0.208 l 49.822,98.560 48.822,-24.744 -50.157,-99.270 -0.041,0 C 79.108,129.441 69.874,123.356 59.215,123.356 z"/>
	</g>
</svg>
